<svg width="260" height="252" viewBox="0 0 260 252" fill="none" xmlns="http://www.w3.org/2000/svg">
<path d="M192.717 8L192.855 8.27539L247.571 117.089C248.964 119.665 250.902 124.373 251.727 126.434C252.011 127.144 252.169 128.313 252.049 129.484C251.929 130.654 251.52 131.937 250.559 132.778C249.709 133.522 248.875 134.137 247.625 134.554C246.39 134.965 244.779 135.173 242.382 135.173H204.664C203.898 135.392 202.652 135.846 201.357 136.515C200.023 137.204 198.675 138.103 197.742 139.174C195.31 141.969 193.923 144.564 193.524 147.947C193.487 148.265 193.454 149.503 193.428 151.539C193.402 153.556 193.382 156.32 193.369 159.653C193.343 166.321 193.34 175.267 193.353 185.08C193.377 204.707 193.459 227.804 193.528 243.085L193.53 243.587H66.5586L66.5605 243.085C66.6294 227.804 66.7122 204.707 66.7363 185.08C66.7484 175.267 66.746 166.321 66.7197 159.653C66.7066 156.32 66.6872 153.556 66.6611 151.539C66.6348 149.503 66.6018 148.265 66.5645 147.947C66.1662 144.564 64.7788 141.969 62.3467 139.174C61.4143 138.103 60.0658 137.204 58.7314 136.515C57.4373 135.846 56.1905 135.392 55.4248 135.173H17.707C15.31 135.173 13.6992 134.965 12.4639 134.554C11.2136 134.137 10.3802 133.522 9.53027 132.778C8.56926 131.937 8.15979 130.654 8.04004 129.484C7.92023 128.313 8.07826 127.144 8.3623 126.434C9.18655 124.373 11.1249 119.665 12.5176 117.089L67.2334 8.27539L67.3721 8H192.717Z" fill="white"/>
<path d="M192.717 8L199.415 4.62691L197.337 0.5H192.717V8ZM192.855 8.27539L199.556 4.90607L199.554 4.9023L192.855 8.27539ZM247.571 117.089L240.871 120.458L240.921 120.557L240.973 120.655L247.571 117.089ZM251.727 126.434L258.69 123.648L258.69 123.648L251.727 126.434ZM252.049 129.484L259.51 130.248L259.51 130.247L252.049 129.484ZM250.559 132.778L255.497 138.423L255.498 138.422L250.559 132.778ZM247.625 134.554L249.996 141.669L249.997 141.669L247.625 134.554ZM242.382 135.173L242.382 142.673L242.382 142.673L242.382 135.173ZM204.664 135.173V127.673H203.612L202.601 127.962L204.664 135.173ZM201.357 136.515L197.915 129.851L197.915 129.851L201.357 136.515ZM197.742 139.174L192.085 134.25L192.084 134.251L197.742 139.174ZM193.524 147.947L186.076 147.071L186.076 147.071L193.524 147.947ZM193.428 151.539L185.928 151.442L185.928 151.442L193.428 151.539ZM193.369 159.653L185.869 159.624L185.869 159.624L193.369 159.653ZM193.353 185.08L185.853 185.089L185.853 185.089L193.353 185.08ZM193.528 243.085L201.028 243.056L201.028 243.051L193.528 243.085ZM193.53 243.587V251.087H201.06L201.03 243.558L193.53 243.587ZM66.5586 243.587L59.0587 243.558L59.0294 251.087H66.5586V243.587ZM66.5605 243.085L59.0606 243.051L59.0606 243.056L66.5605 243.085ZM66.7363 185.08L74.2363 185.089L74.2363 185.089L66.7363 185.08ZM66.7197 159.653L74.2197 159.624L74.2197 159.624L66.7197 159.653ZM66.6611 151.539L74.1605 151.442L74.1605 151.442L66.6611 151.539ZM66.5645 147.947L74.0131 147.071L74.013 147.071L66.5645 147.947ZM62.3467 139.174L68.0049 134.251L68.0042 134.25L62.3467 139.174ZM58.7314 136.515L62.1738 129.851L62.1736 129.851L58.7314 136.515ZM55.4248 135.173L57.4881 127.962L56.4768 127.673H55.4248V135.173ZM17.707 135.173L17.707 142.673H17.707V135.173ZM12.4639 134.554L10.0917 141.669L10.0925 141.669L12.4639 134.554ZM9.53027 132.778L4.5906 138.422L4.59156 138.423L9.53027 132.778ZM8.04004 129.484L0.578951 130.247L0.579032 130.248L8.04004 129.484ZM8.3623 126.434L1.3988 123.648L1.3988 123.648L8.3623 126.434ZM12.5176 117.089L19.1154 120.655L19.1682 120.557L19.2182 120.458L12.5176 117.089ZM67.2334 8.27539L60.5347 4.9023L60.5328 4.90607L67.2334 8.27539ZM67.3721 8V0.5H62.7515L60.6734 4.62691L67.3721 8ZM192.717 8L186.018 11.3731L186.157 11.6485L192.855 8.27539L199.554 4.9023L199.415 4.62691L192.717 8ZM192.855 8.27539L186.155 11.6447L240.871 120.458L247.571 117.089L254.272 113.72L199.556 4.90607L192.855 8.27539ZM247.571 117.089L240.973 120.655C242.126 122.788 243.911 127.09 244.763 129.219L251.727 126.434L258.69 123.648C257.893 121.656 255.802 116.543 254.169 113.522L247.571 117.089ZM251.727 126.434L244.763 129.219C244.666 128.977 244.624 128.809 244.608 128.741C244.599 128.701 244.594 128.674 244.591 128.658C244.588 128.642 244.587 128.634 244.587 128.634C244.587 128.634 244.588 128.638 244.588 128.647C244.589 128.655 244.589 128.665 244.589 128.676C244.589 128.701 244.588 128.717 244.588 128.721L252.049 129.484L259.51 130.247C259.724 128.15 259.518 125.719 258.69 123.648L251.727 126.434ZM252.049 129.484L244.588 128.721C244.588 128.721 244.588 128.719 244.588 128.717C244.589 128.715 244.589 128.711 244.59 128.706C244.592 128.696 244.595 128.678 244.601 128.653C244.612 128.606 244.638 128.511 244.692 128.379C244.799 128.122 245.061 127.623 245.619 127.135L250.559 132.778L255.498 138.422C258.489 135.804 259.298 132.319 259.51 130.248L252.049 129.484ZM250.559 132.778L245.62 127.134C245.328 127.389 245.234 127.45 245.224 127.456C245.223 127.456 245.236 127.448 245.254 127.44C245.272 127.431 245.274 127.432 245.253 127.439L247.625 134.554L249.997 141.669C252.579 140.808 254.283 139.485 255.497 138.423L250.559 132.778ZM247.625 134.554L245.254 127.438C245.126 127.481 244.438 127.673 242.382 127.673L242.382 135.173L242.382 142.673C245.119 142.673 247.653 142.45 249.996 141.669L247.625 134.554ZM242.382 135.173V127.673H204.664V135.173V142.673H242.382V135.173ZM204.664 135.173L202.601 127.962C201.379 128.312 199.668 128.946 197.915 129.851L201.357 136.515L204.8 143.178C205.635 142.747 206.418 142.472 206.727 142.383L204.664 135.173ZM201.357 136.515L197.915 129.851C196.181 130.747 193.898 132.166 192.085 134.25L197.742 139.174L203.4 144.098C203.389 144.109 203.489 143.997 203.768 143.797C204.037 143.604 204.387 143.391 204.8 143.178L201.357 136.515ZM197.742 139.174L192.084 134.251C188.966 137.835 186.698 141.787 186.076 147.071L193.524 147.947L200.973 148.824C201.148 147.341 201.654 146.104 203.4 144.097L197.742 139.174ZM193.524 147.947L186.076 147.071C185.98 147.888 185.951 149.668 185.928 151.442L193.428 151.539L200.927 151.636C200.94 150.633 200.954 149.854 200.969 149.3C200.977 149.022 200.984 148.825 200.989 148.697C200.998 148.502 200.998 148.607 200.973 148.824L193.524 147.947ZM193.428 151.539L185.928 151.442C185.902 153.492 185.882 156.282 185.869 159.624L193.369 159.653L200.869 159.683C200.882 156.357 200.901 153.619 200.927 151.636L193.428 151.539ZM193.369 159.653L185.869 159.624C185.843 166.311 185.84 175.272 185.853 185.089L193.353 185.08L200.853 185.071C200.84 175.261 200.843 166.33 200.869 159.683L193.369 159.653ZM193.353 185.08L185.853 185.089C185.877 204.727 185.96 227.833 186.028 243.119L193.528 243.085L201.028 243.051C200.959 227.775 200.877 204.687 200.853 185.071L193.353 185.08ZM193.528 243.085L186.028 243.114L186.03 243.616L193.53 243.587L201.03 243.558L201.028 243.056L193.528 243.085ZM193.53 243.587V236.087H66.5586V243.587V251.087H193.53V243.587ZM66.5586 243.587L74.0585 243.616L74.0605 243.114L66.5605 243.085L59.0606 243.056L59.0587 243.558L66.5586 243.587ZM66.5605 243.085L74.0605 243.119C74.1293 227.833 74.2122 204.727 74.2363 185.089L66.7363 185.08L59.2363 185.071C59.2123 204.687 59.1294 227.775 59.0606 243.051L66.5605 243.085ZM66.7363 185.08L74.2363 185.089C74.2484 175.272 74.246 166.311 74.2197 159.624L66.7197 159.653L59.2198 159.683C59.2459 166.33 59.2484 175.261 59.2363 185.071L66.7363 185.08ZM66.7197 159.653L74.2197 159.624C74.2065 156.282 74.187 153.492 74.1605 151.442L66.6611 151.539L59.1618 151.636C59.1874 153.619 59.2067 156.357 59.2198 159.683L66.7197 159.653ZM66.6611 151.539L74.1605 151.442C74.1376 149.668 74.1092 147.888 74.0131 147.071L66.5645 147.947L59.1158 148.824C59.0904 148.607 59.0905 148.502 59.0994 148.697C59.1052 148.825 59.1122 149.022 59.1197 149.3C59.1345 149.854 59.1488 150.633 59.1618 151.636L66.6611 151.539ZM66.5645 147.947L74.013 147.071C73.3911 141.787 71.1229 137.835 68.0049 134.251L62.3467 139.174L56.6884 144.097C58.4346 146.104 58.9413 147.341 59.1159 148.824L66.5645 147.947ZM62.3467 139.174L68.0042 134.25C66.1904 132.166 63.9074 130.747 62.1738 129.851L58.7314 136.515L55.2891 143.178C55.7023 143.391 56.0515 143.604 56.3206 143.797C56.6003 143.997 56.6995 144.109 56.6891 144.097L62.3467 139.174ZM58.7314 136.515L62.1736 129.851C60.4207 128.946 58.7102 128.312 57.4881 127.962L55.4248 135.173L53.3615 142.383C53.6709 142.472 54.4538 142.747 55.2893 143.178L58.7314 136.515ZM55.4248 135.173V127.673H17.707V135.173V142.673H55.4248V135.173ZM17.707 135.173L17.7071 127.673C15.6504 127.673 14.9629 127.481 14.8352 127.438L12.4639 134.554L10.0925 141.669C12.4354 142.45 14.9696 142.673 17.707 142.673L17.707 135.173ZM12.4639 134.554L14.836 127.439C14.8143 127.432 14.8171 127.431 14.8351 127.44C14.8533 127.448 14.8655 127.456 14.8652 127.456C14.8554 127.45 14.7605 127.389 14.469 127.134L9.53027 132.778L4.59156 138.423C5.80587 139.485 7.5094 140.808 10.0917 141.669L12.4639 134.554ZM9.53027 132.778L14.47 127.135C15.0277 127.623 15.2899 128.122 15.3967 128.379C15.4512 128.511 15.4769 128.606 15.4881 128.653C15.4941 128.678 15.4973 128.696 15.499 128.706C15.4998 128.711 15.5003 128.715 15.5006 128.717C15.5008 128.718 15.5009 128.719 15.501 128.72C15.501 128.72 15.501 128.721 15.501 128.721L8.04004 129.484L0.579032 130.248C0.790987 132.319 1.59954 135.804 4.5906 138.422L9.53027 132.778ZM8.04004 129.484L15.5011 128.721C15.5007 128.717 15.4994 128.701 15.4996 128.676C15.4997 128.665 15.5001 128.655 15.5006 128.647C15.5011 128.638 15.5017 128.634 15.5016 128.634C15.5016 128.634 15.5007 128.642 15.498 128.658C15.4954 128.674 15.4902 128.701 15.4809 128.741C15.4653 128.809 15.4227 128.977 15.3258 129.219L8.3623 126.434L1.3988 123.648C0.570494 125.719 0.364495 128.15 0.578951 130.247L8.04004 129.484ZM8.3623 126.434L15.3258 129.219C16.1776 127.09 17.9626 122.788 19.1154 120.655L12.5176 117.089L5.91978 113.522C4.28733 116.543 2.19549 121.656 1.3988 123.648L8.3623 126.434ZM12.5176 117.089L19.2182 120.458L73.934 11.6447L67.2334 8.27539L60.5328 4.90607L5.817 113.72L12.5176 117.089ZM67.2334 8.27539L73.9321 11.6485L74.0707 11.3731L67.3721 8L60.6734 4.62691L60.5347 4.9023L67.2334 8.27539ZM67.3721 8V15.5H192.717V8V0.5H67.3721V8Z" fill="white"/>
</svg>
