<svg width="589" height="463" viewBox="0 0 589 463" fill="none" xmlns="http://www.w3.org/2000/svg">
<g filter="url(#filter0_d_60_12)">
<path d="M65 58L104.5 35.1947C119.5 26.6298 158.6 15.5 195 39.5L213 49.8923C211.5 52.9282 224.4 51.4 288 21C367.5 -17 460.5 6.00001 490.5 26C507.915 37.61 514.097 41.6731 515.542 42.5829L515.5 42.5C515.957 42.8201 516.088 42.9269 515.542 42.5829L582.5 174.5C584 177.833 586.1 185.3 582.5 188.5C578 192.5 576 193 565 193H473C467.667 193.667 459.128 197.506 454 203C447 210.5 441.5 220.5 441.5 230.5C441.5 244.95 441 385 441.5 455H148V227C147.167 221.5 143.5 209.1 135.5 203.5C125.5 196.5 117.5 193 110 193H15.5C13.8333 192.833 7.82798 193.178 5.99997 189C2.5 181 6.00009 173.5 9.50009 168C12.3001 163.6 46.5 94.3333 65 58Z" fill="#D9D9D9"/>
</g>
<defs>
<filter id="filter0_d_60_12" x="0.550293" y="0.577393" width="587.938" height="462.423" filterUnits="userSpaceOnUse" color-interpolation-filters="sRGB">
<feFlood flood-opacity="0" result="BackgroundImageFix"/>
<feColorMatrix in="SourceAlpha" type="matrix" values="0 0 0 0 0 0 0 0 0 0 0 0 0 0 0 0 0 0 127 0" result="hardAlpha"/>
<feOffset dy="4"/>
<feGaussianBlur stdDeviation="2"/>
<feComposite in2="hardAlpha" operator="out"/>
<feColorMatrix type="matrix" values="0 0 0 0 0 0 0 0 0 0 0 0 0 0 0 0 0 0 0.25 0"/>
<feBlend mode="normal" in2="BackgroundImageFix" result="effect1_dropShadow_60_12"/>
<feBlend mode="normal" in="SourceGraphic" in2="effect1_dropShadow_60_12" result="shape"/>
</filter>
</defs>
</svg>
